<?xml version="1.0" encoding="UTF-8" standalone="no"?>
<!-- Generator: Adobe Illustrator 16.0.4, SVG Export Plug-In . SVG Version: 6.00 Build 0)  -->

<svg
   xmlns:dc="http://purl.org/dc/elements/1.1/"
   xmlns:cc="http://creativecommons.org/ns#"
   xmlns:rdf="http://www.w3.org/1999/02/22-rdf-syntax-ns#"
   xmlns:svg="http://www.w3.org/2000/svg"
   xmlns="http://www.w3.org/2000/svg"
   xmlns:sodipodi="http://sodipodi.sourceforge.net/DTD/sodipodi-0.dtd"
   xmlns:inkscape="http://www.inkscape.org/namespaces/inkscape"
   version="1.1"
   id="Layer_2"
   x="0px"
   y="0px"
   width="400px"
   height="194px"
   viewBox="0 0 400 194"
   enable-background="new 0 0 400 194"
   xml:space="preserve"
   inkscape:version="0.91 r13725"
   sodipodi:docname="openup-logo.svg"
   inkscape:export-filename="/Users/greg/Downloads/OpenUp-logo_3.png"
   inkscape:export-xdpi="57.540001"
   inkscape:export-ydpi="57.540001"><metadata
     id="metadata71"><rdf:RDF><cc:Work
         rdf:about=""><dc:format>image/svg+xml</dc:format><dc:type
           rdf:resource="http://purl.org/dc/dcmitype/StillImage" /></cc:Work></rdf:RDF></metadata><defs
     id="defs69" /><sodipodi:namedview
     pagecolor="#ffffff"
     bordercolor="#666666"
     borderopacity="1"
     objecttolerance="10"
     gridtolerance="10"
     guidetolerance="10"
     inkscape:pageopacity="0"
     inkscape:pageshadow="2"
     inkscape:window-width="1209"
     inkscape:window-height="681"
     id="namedview67"
     showgrid="false"
     inkscape:zoom="1.0960155"
     inkscape:cx="169.70118"
     inkscape:cy="107.92576"
     inkscape:window-x="99"
     inkscape:window-y="38"
     inkscape:window-maximized="0"
     inkscape:current-layer="g3" /><g
     id="g3"><g
       id="g5"
       transform="translate(131.6129,0)"
       style="fill:#ffffff;fill-opacity:1"><path
         d="m 56.938,100.484 c 0,7.312 -1.85,13.062 -5.547,17.25 -3.698,4.188 -8.839,6.281 -15.422,6.281 -6.729,0 -11.922,-2.057 -15.578,-6.172 -3.656,-4.114 -5.484,-9.922 -5.484,-17.422 0,-7.438 1.833,-13.203 5.5,-17.297 3.666,-4.094 8.875,-6.141 15.625,-6.141 6.562,0 11.688,2.083 15.375,6.25 3.687,4.168 5.531,9.918 5.531,17.251 z m -36.407,0 c 0,6.188 1.317,10.881 3.953,14.078 2.635,3.198 6.463,4.797 11.484,4.797 5.062,0 8.885,-1.594 11.469,-4.781 2.583,-3.188 3.875,-7.885 3.875,-14.094 0,-6.146 -1.287,-10.807 -3.859,-13.984 -2.573,-3.177 -6.381,-4.766 -11.422,-4.766 -5.062,0 -8.912,1.599 -11.547,4.797 -2.635,3.198 -3.953,7.849 -3.953,13.953 z"
         id="path7"
         inkscape:connector-curvature="0"
         style="fill:#ffffff;fill-opacity:1" /><path
         d="m 79.722,124.016 c -2.229,0 -4.266,-0.412 -6.109,-1.234 -1.843,-0.822 -3.391,-2.088 -4.641,-3.797 l -0.375,0 c 0.25,2 0.375,3.896 0.375,5.688 l 0,14.094 -5.188,0 0,-49.626 4.219,0 0.719,4.688 0.25,0 c 1.333,-1.875 2.885,-3.229 4.656,-4.062 1.771,-0.833 3.802,-1.25 6.094,-1.25 4.541,0 8.047,1.552 10.516,4.656 2.469,3.104 3.703,7.458 3.703,13.062 0,5.625 -1.256,9.995 -3.766,13.109 -2.511,3.115 -5.995,4.672 -10.453,4.672 z m -0.75,-31.094 c -3.5,0 -6.031,0.969 -7.594,2.906 -1.563,1.937 -2.365,5.021 -2.406,9.25 l 0,1.156 c 0,4.812 0.802,8.256 2.406,10.328 1.604,2.073 4.177,3.109 7.719,3.109 2.958,0 5.275,-1.197 6.953,-3.594 1.677,-2.396 2.516,-5.697 2.516,-9.906 0,-4.271 -0.839,-7.547 -2.516,-9.828 -1.678,-2.281 -4.037,-3.421 -7.078,-3.421 z"
         id="path9"
         inkscape:connector-curvature="0"
         style="fill:#ffffff;fill-opacity:1" /><path
         d="m 114.911,124.016 c -5.062,0 -9.058,-1.541 -11.984,-4.625 -2.928,-3.083 -4.391,-7.364 -4.391,-12.844 0,-5.521 1.359,-9.906 4.078,-13.156 2.719,-3.25 6.369,-4.875 10.953,-4.875 4.291,0 7.688,1.412 10.188,4.234 2.5,2.823 3.75,6.547 3.75,11.172 l 0,3.281 -23.594,0 c 0.104,4.021 1.119,7.073 3.047,9.156 1.927,2.084 4.641,3.125 8.141,3.125 3.688,0 7.333,-0.771 10.938,-2.312 l 0,4.625 c -1.834,0.792 -3.568,1.359 -5.203,1.703 -1.637,0.344 -3.61,0.516 -5.923,0.516 z m -1.406,-31.157 c -2.75,0 -4.943,0.896 -6.578,2.688 -1.636,1.792 -2.6,4.271 -2.891,7.438 l 17.906,0 c 0,-3.271 -0.729,-5.776 -2.188,-7.516 -1.458,-1.74 -3.541,-2.61 -6.249,-2.61 z"
         id="path11"
         inkscape:connector-curvature="0"
         style="fill:#ffffff;fill-opacity:1" /><path
         d="m 157.227,123.391 0,-22.156 c 0,-2.792 -0.636,-4.875 -1.906,-6.25 -1.271,-1.375 -3.261,-2.062 -5.969,-2.062 -3.584,0 -6.209,0.969 -7.875,2.906 -1.667,1.938 -2.5,5.136 -2.5,9.594 l 0,17.969 -5.188,0 0,-34.25 4.219,0 0.844,4.688 0.25,0 c 1.062,-1.688 2.552,-2.995 4.469,-3.922 1.916,-0.927 4.052,-1.391 6.406,-1.391 4.125,0 7.229,0.995 9.312,2.984 2.083,1.99 3.125,5.172 3.125,9.547 l 0,22.344 -5.187,0 z"
         id="path13"
         inkscape:connector-curvature="0"
         style="fill:#ffffff;fill-opacity:1" /><path
         d="m 207.071,77.703 0,29.562 c 0,5.209 -1.573,9.303 -4.719,12.281 -3.146,2.979 -7.469,4.469 -12.969,4.469 -5.5,0 -9.756,-1.5 -12.766,-4.5 -3.011,-3 -4.516,-7.125 -4.516,-12.375 l 0,-29.437 5.312,0 0,29.812 c 0,3.812 1.041,6.74 3.125,8.781 2.083,2.042 5.146,3.062 9.188,3.062 3.854,0 6.822,-1.025 8.906,-3.078 2.083,-2.052 3.125,-4.994 3.125,-8.828 l 0,-29.75 5.314,0 z"
         id="path15"
         inkscape:connector-curvature="0"
         style="fill:#ffffff;fill-opacity:1" /><path
         d="m 230.481,124.016 c -2.229,0 -4.266,-0.412 -6.109,-1.234 -1.843,-0.822 -3.391,-2.088 -4.641,-3.797 l -0.375,0 c 0.25,2 0.375,3.896 0.375,5.688 l 0,14.094 -5.188,0 0,-49.626 4.219,0 0.719,4.688 0.25,0 c 1.333,-1.875 2.885,-3.229 4.656,-4.062 1.771,-0.833 3.802,-1.25 6.094,-1.25 4.541,0 8.047,1.552 10.516,4.656 2.469,3.104 3.703,7.458 3.703,13.062 0,5.625 -1.256,9.995 -3.766,13.109 -2.51,3.115 -5.995,4.672 -10.453,4.672 z m -0.75,-31.094 c -3.5,0 -6.031,0.969 -7.594,2.906 -1.563,1.937 -2.365,5.021 -2.406,9.25 l 0,1.156 c 0,4.812 0.802,8.256 2.406,10.328 1.604,2.073 4.177,3.109 7.719,3.109 2.958,0 5.275,-1.197 6.953,-3.594 1.677,-2.396 2.516,-5.697 2.516,-9.906 0,-4.271 -0.839,-7.547 -2.516,-9.828 -1.677,-2.281 -4.037,-3.421 -7.078,-3.421 z"
         id="path17"
         inkscape:connector-curvature="0"
         style="fill:#ffffff;fill-opacity:1" /></g><path
       inkscape:connector-curvature="0"
       style="fill:#a4da22;fill-opacity:1"
       id="path21"
       d="M 42.0831,73.025 49.8171,60.067 60.7641,68.031 69.5981,61.345 83.7031,71.875 88.3711,63.953 99.7731,66.241 104.4881,57.265 113.7831,57.035 119.8651,51.913 C 104.2611,27.723 78.7341,12.105 62.4021,16.772 46.8511,21.217 34.3181,44.66 32.3791,71.078 L 42.0831,73.025 Z" /><path
       inkscape:connector-curvature="0"
       style="fill:#a4da22;fill-opacity:1"
       id="path23"
       d="M 118.6321,101.094 111.5051,98.914 105.5281,106.939 92.6921,99.058 84.7491,103.831 75.2391,87.613 63.9851,91.998 57.9851,80.219 49.7681,87.311 38.6451,77.311 C 34.0261,86.5 30.7111,96.708 29.4751,107.248 25.0411,145.033 44.4961,169.424 71.6471,172.607 98.7991,175.791 123.3681,156.564 127.7991,118.781 128.5491,112.39 128.4961,105.943 127.8151,99.623 L 118.6321,101.094 Z" /><g
       id="g25"
       transform="translate(-251.6129,0)"><path
         style="fill:#ffffff;fill-opacity:1"
         inkscape:connector-curvature="0"
         id="path27"
         d="M 320.114,171.781 C 305.829,171.781 292.864,165.951 283.606,155.364 273.798,144.146 268.614,128.385 268.614,109.781 268.614,69.034 297.413,32.78 320.114,32.78 331.43,32.78 344.383,41.79 354.761,56.882 365.471,72.454 371.614,91.736 371.614,109.781 371.614,128.385 366.429,144.146 356.622,155.364 347.364,165.951 334.399,171.781 320.114,171.781 Z M 320.114,36.78 C 299.374,36.78 272.614,72.18 272.614,109.781 272.614,127.401 277.457,142.253 286.618,152.73 295.104,162.436 307,167.781 320.114,167.781 333.228,167.781 345.124,162.436 353.61,152.73 362.771,142.252 367.614,127.401 367.614,109.781 367.614,92.524 361.728,74.069 351.467,59.148 341.834,45.143 330.113,36.78 320.114,36.78 Z" /></g><g
       id="g29"
       transform="translate(-251.6129,0)"
       style="fill:#ffffff;fill-opacity:1"><path
         style="fill:#ffffff;fill-opacity:1"
         inkscape:connector-curvature="0"
         id="path31"
         d="M 309.104,160.781 C 308.916,160.781 308.725,160.746 308.54,160.671 278.449,148.43 278.269,112.468 278.271,112.107 278.275,111.281 278.946,110.614 279.771,110.614 279.771,110.614 279.775,110.614 279.777,110.615 280.605,110.618 281.274,111.292 281.271,112.12 281.27,112.462 281.479,146.425 309.67,157.892 310.438,158.204 310.806,159.08 310.494,159.847 310.257,160.429 309.696,160.781 309.104,160.781 Z" /></g><g
       id="g33"
       transform="translate(-251.6129,0)"
       style="fill:#ffffff;fill-opacity:1"><path
         style="fill:#ffffff;fill-opacity:1"
         inkscape:connector-curvature="0"
         id="path35"
         d="M 345.605,70.031 C 345.034,70.031 344.488,69.702 344.237,69.147 343.704,67.967 343.112,66.795 342.476,65.663 342.07,64.94 342.327,64.026 343.049,63.62 343.771,63.215 344.687,63.472 345.091,64.194 345.77,65.403 346.402,66.653 346.971,67.913 347.312,68.669 346.976,69.557 346.221,69.897 346.021,69.988 345.812,70.031 345.605,70.031 Z" /></g><g
       id="g37"
       transform="translate(-251.6129,0)"><path
         style="fill:none;stroke:#6d6e70;stroke-width:3;stroke-linecap:round;stroke-miterlimit:10"
         inkscape:connector-curvature="0"
         id="path39"
         d="M 342.673,63.052"
         stroke-miterlimit="10" /></g><g
       id="g41"
       transform="translate(-251.6129,0)"><path
         style="fill:none;stroke:#6d6e70;stroke-width:3;stroke-linecap:round;stroke-miterlimit:10"
         inkscape:connector-curvature="0"
         id="path43"
         d="M 341.62,61.442"
         stroke-miterlimit="10" /></g><g
       id="g45"
       transform="translate(-251.6129,0)"
       style="fill:#ffffff;fill-opacity:1"><path
         style="fill:#ffffff;fill-opacity:1"
         inkscape:connector-curvature="0"
         id="path47"
         d="M 341.621,62.942 C 341.142,62.942 340.673,62.713 340.382,62.288 335.222,54.741 329.377,51.095 329.319,51.058 328.614,50.624 328.393,49.701 328.828,48.996 329.263,48.289 330.187,48.071 330.891,48.504 331.152,48.664 337.341,52.527 342.859,60.596 343.327,61.281 343.151,62.213 342.467,62.682 342.208,62.856 341.913,62.942 341.621,62.942 Z" /></g><g
       id="g49"
       transform="translate(-251.6129,0)"
       style="fill:#ffffff;fill-opacity:1"><path
         style="fill:#ffffff;fill-opacity:1"
         inkscape:connector-curvature="0"
         id="path51"
         d="M 272.77,58.614 C 272.554,58.614 272.335,58.567 272.127,58.468 271.379,58.113 271.061,57.22 271.415,56.472 271.577,56.13 275.479,48.027 284.591,39.675 285.202,39.117 286.151,39.157 286.71,39.767 287.27,40.378 287.229,41.328 286.618,41.887 277.966,49.818 274.163,57.68 274.125,57.759 273.868,58.298 273.33,58.614 272.77,58.614 Z" /></g><g
       id="g53"
       transform="translate(-251.6129,0)"
       style="fill:#ffffff;fill-opacity:1"><path
         style="fill:#ffffff;fill-opacity:1"
         inkscape:connector-curvature="0"
         id="path55"
         d="M 266.77,54.114 C 266.626,54.114 266.481,54.083 266.342,54.016 265.843,53.78 265.631,53.184 265.867,52.685 266.027,52.348 269.888,44.331 278.929,36.043 279.337,35.67 279.969,35.696 280.342,36.104 280.715,36.512 280.688,37.144 280.28,37.518 271.547,45.524 267.712,53.463 267.674,53.543 267.503,53.903 267.144,54.114 266.77,54.114 Z" /></g><g
       id="g57"
       transform="translate(-251.6129,0)"
       style="fill:#ffffff;fill-opacity:1"><g
         id="g59"
         style="fill:#ffffff;fill-opacity:1"><path
           style="fill:#ffffff;fill-opacity:1"
           inkscape:connector-curvature="0"
           id="path61"
           d="M 372.662,165.844 C 372.359,165.844 372.055,165.753 371.79,165.564 371.116,165.083 370.961,164.145 371.443,163.471 378.271,153.924 380.37,145.446 380.39,145.361 380.584,144.556 381.394,144.061 382.199,144.254 383.004,144.447 383.5,145.256 383.307,146.061 383.219,146.428 381.074,155.164 373.882,165.218 373.591,165.626 373.13,165.844 372.662,165.844 Z" /></g><g
         id="g63"
         style="fill:#ffffff;fill-opacity:1"><path
           style="fill:#ffffff;fill-opacity:1"
           inkscape:connector-curvature="0"
           id="path65"
           d="M 379.359,168.018 C 379.158,168.018 378.955,167.957 378.778,167.831 378.329,167.51 378.225,166.885 378.547,166.435 385.457,156.777 387.551,148.239 387.571,148.154 387.7,147.617 388.24,147.289 388.776,147.414 389.313,147.543 389.644,148.082 389.516,148.619 389.429,148.982 387.308,157.625 380.173,167.599 379.979,167.872 379.671,168.018 379.359,168.018 Z" /></g></g></g></svg>